<?xml version="1.0" encoding="UTF-8" standalone="no"?>
<svg
   xmlns:dc="http://purl.org/dc/elements/1.1/"
   xmlns:cc="http://creativecommons.org/ns#"
   xmlns:rdf="http://www.w3.org/1999/02/22-rdf-syntax-ns#"
   xmlns:svg="http://www.w3.org/2000/svg"
   xmlns="http://www.w3.org/2000/svg"
   xmlns:sodipodi="http://sodipodi.sourceforge.net/DTD/sodipodi-0.dtd"
   xmlns:inkscape="http://www.inkscape.org/namespaces/inkscape"
   width="512"
   height="512"
   viewBox="0 0 135.46666 135.46667"
   version="1.1"
   id="svg8"
   inkscape:version="1.0.2-2 (e86c870879, 2021-01-15)"
   sodipodi:docname="alsonow-lite-logo.svg">
  <defs
     id="defs2" />
  <sodipodi:namedview
     id="base"
     pagecolor="#ffffff"
     bordercolor="#666666"
     borderopacity="1.0"
     inkscape:pageopacity="0.0"
     inkscape:pageshadow="2"
     inkscape:zoom="0.35355339"
     inkscape:cx="150.74046"
     inkscape:cy="362.28939"
     inkscape:document-units="mm"
     inkscape:current-layer="layer1"
     inkscape:document-rotation="0"
     showgrid="false"
     units="px"
     inkscape:window-width="1920"
     inkscape:window-height="986"
     inkscape:window-x="-11"
     inkscape:window-y="-11"
     inkscape:window-maximized="1" />
  <metadata
     id="metadata5">
    <rdf:RDF>
      <cc:Work
         rdf:about="">
        <dc:format>image/svg+xml</dc:format>
        <dc:type
           rdf:resource="http://purl.org/dc/dcmitype/StillImage" />
        <dc:title></dc:title>
      </cc:Work>
    </rdf:RDF>
  </metadata>
  <g
     inkscape:label="Layer 1"
     inkscape:groupmode="layer"
     id="layer1">
    <path
       id="circle837"
       style="fill:#00ffff;stroke:none;stroke-width:4.99998"
       d="m 110.01534,25.451356 a 59.795837,59.795837 0 0 1 0,84.564084 59.795837,59.795837 0 0 1 -84.564081,0 59.795837,59.795837 0 0 1 0,-84.564082 59.795837,59.795837 0 0 1 84.564081,-2e-6 z" />
    <path
       id="circle905"
       style="fill:#ffeeaa;stroke:#000000;stroke-width:18.8976"
       d="M 34.5 217 A 139.5 139.5 0 0 0 33.390625 217.00586 A 226.00001 226.00001 0 0 0 96.193359 415.80664 A 226.00001 226.00001 0 0 0 138.74414 449.20117 A 139.5 139.5 0 0 0 174 356.5 A 139.5 139.5 0 0 0 34.5 217 z "
       transform="scale(0.26458333)" />
    <path
       id="circle887"
       style="fill:#800000;stroke:#000000;stroke-width:18.8976"
       d="M 255.48047 30 A 226.00001 226.00001 0 0 0 208.11914 35.130859 A 139.5 139.5 0 0 0 346.5 157 A 139.5 139.5 0 0 0 438.34961 122.49414 A 226.00001 226.00001 0 0 0 415.80664 96.193359 A 226.00001 226.00001 0 0 0 255.48047 30 z "
       transform="scale(0.26458333)" />
    <path
       style="color:#000000;font-style:normal;font-variant:normal;font-weight:normal;font-stretch:normal;font-size:medium;line-height:normal;font-family:sans-serif;font-variant-ligatures:normal;font-variant-position:normal;font-variant-caps:normal;font-variant-numeric:normal;font-variant-alternates:normal;font-variant-east-asian:normal;font-feature-settings:normal;font-variation-settings:normal;text-indent:0;text-align:start;text-decoration:none;text-decoration-line:none;text-decoration-style:solid;text-decoration-color:#000000;letter-spacing:normal;word-spacing:normal;text-transform:none;writing-mode:lr-tb;direction:ltr;text-orientation:mixed;dominant-baseline:auto;baseline-shift:baseline;text-anchor:start;white-space:normal;shape-padding:0;shape-margin:0;inline-size:0;clip-rule:nonzero;display:inline;overflow:visible;visibility:visible;isolation:auto;mix-blend-mode:normal;color-interpolation:sRGB;color-interpolation-filters:linearRGB;solid-color:#000000;solid-opacity:1;vector-effect:none;fill:#000000;fill-opacity:1;fill-rule:nonzero;stroke:none;stroke-linecap:butt;stroke-linejoin:miter;stroke-miterlimit:4;stroke-dasharray:none;stroke-dashoffset:0;stroke-opacity:1;color-rendering:auto;image-rendering:auto;shape-rendering:auto;text-rendering:auto;enable-background:accumulate;stop-color:#000000"
       d="m 23.682855,23.684238 c -24.3070953,24.307096 -24.3070953,63.791228 0,88.098322 24.307098,24.3071 63.792611,24.30848 88.099705,0.001 24.3071,-24.307093 24.3071,-63.793987 0,-88.101085 -24.307094,-24.3070953 -63.792607,-24.30571502 -88.099705,0.0014 z m 3.535534,3.535534 c 22.396359,-22.3963584 58.63228,-22.3977415 81.028641,-0.0014 22.39636,22.396359 22.39636,58.633663 0,81.030021 -22.396361,22.39636 -58.632282,22.39498 -81.028641,-0.001 -22.3963585,-22.396361 -22.3963585,-58.630899 0,-81.027258 z"
       id="path835" />
    <g
       aria-label="als"
       transform="rotate(45,-95.789493,0)"
       id="text841"
       style="font-style:normal;font-weight:normal;font-size:50.8px;line-height:1.25;font-family:sans-serif;fill:#000000;fill-opacity:1;stroke:none;stroke-width:0.264583">
      <path
         d="m 27.30861,-49.065244 q -2.133203,0 -4.01836,-0.892968 -1.934765,-0.892969 -3.026172,-2.629297 -1.091406,-1.736328 -1.091406,-3.96875 0,-3.869531 2.976563,-5.953125 3.026172,-2.133203 8.483203,-2.133203 h 5.953125 v -0.347266 q 0,-3.175 -1.5875,-4.613671 -1.537891,-1.488282 -5.010547,-1.488282 -1.785938,0 -3.22461,0.297657 -1.438671,0.248046 -3.373437,0.892968 l -0.644922,0.09922 q -0.74414,0 -1.339453,-0.545703 -0.545703,-0.595313 -0.545703,-1.389063 0,-1.389062 1.339453,-1.934765 4.167188,-1.785938 8.582422,-1.785938 3.423047,0 5.853906,1.389063 2.282031,1.339453 3.423047,3.571875 1.141015,2.182812 1.141015,4.861718 v 14.039453 q 0,0.942578 -0.694531,1.63711 -0.694531,0.644922 -1.637109,0.644922 -0.942578,0 -1.63711,-0.644922 -0.644921,-0.694532 -0.644921,-1.63711 v -1.190625 q -3.571875,3.720703 -9.276953,3.720702 z m 1.686718,-4.067968 q 2.133203,0 4.117578,-0.992188 2.033985,-1.041797 3.472657,-2.678906 v -4.117578 H 31.22775 q -7.441406,0 -7.441406,3.869531 0,3.919141 5.208984,3.919141 z"
         style="font-style:normal;font-variant:normal;font-weight:normal;font-stretch:normal;font-size:50.8px;font-family:'jf-openhuninn-1.1';-inkscape-font-specification:'jf-openhuninn-1.1';text-align:start;text-anchor:start;stroke-width:0.264583"
         id="path891" />
      <path
         d="m 50.972281,-49.31329 q -0.942578,0 -1.637109,-0.644922 -0.644922,-0.694532 -0.644922,-1.63711 v -32.196484 q 0,-0.942578 0.644922,-1.637109 0.694531,-0.694531 1.637109,-0.694531 0.992188,0 1.63711,0.694531 0.694531,0.644922 0.694531,1.637109 v 32.196484 q 0,0.942578 -0.694531,1.63711 -0.694532,0.644922 -1.63711,0.644922 z"
         style="font-style:normal;font-variant:normal;font-weight:normal;font-stretch:normal;font-size:50.8px;font-family:'jf-openhuninn-1.1';-inkscape-font-specification:'jf-openhuninn-1.1';text-align:start;text-anchor:start;stroke-width:0.264583"
         id="path893" />
      <path
         d="m 69.278142,-49.065244 q -4.911328,0 -9.078516,-2.232421 -0.843359,-0.595313 -0.843359,-1.686719 0,-0.79375 0.545703,-1.389063 0.595312,-0.644921 1.438672,-0.644921 0.496093,0 0.892968,0.198437 1.686719,0.744141 3.274219,1.141016 1.5875,0.347265 3.472656,0.347265 5.457032,0 5.457032,-3.472656 0,-1.091406 -1.190625,-1.686719 -1.240235,-0.595312 -4.167188,-1.339453 -2.877344,-0.644922 -4.812109,-1.438672 -2.133203,-0.79375 -3.423047,-2.38125 -1.289844,-1.5875 -1.289844,-3.91914 0,-3.522266 2.579688,-5.705078 2.579687,-2.182813 7.14375,-2.182813 3.96875,0 7.193359,1.240235 0.694531,0.198437 1.091406,0.74414 0.396875,0.545703 0.396875,1.190625 0,0.79375 -0.595312,1.438672 -0.595313,0.595313 -1.438672,0.595313 l -0.644922,-0.09922 q -2.976563,-0.892969 -5.655469,-0.892969 -2.579687,0 -4.117578,0.942578 -1.53789,0.942578 -1.53789,2.480469 0,1.438672 1.339453,2.133203 1.438672,0.644922 4.316015,1.339453 2.678906,0.694531 4.7625,1.438672 2.033984,0.79375 3.274219,2.430859 1.240234,1.5875 1.240234,4.01836 0,3.224609 -2.579687,5.308203 -2.579688,2.083593 -7.044531,2.083593 z"
         style="font-style:normal;font-variant:normal;font-weight:normal;font-stretch:normal;font-size:50.8px;font-family:'jf-openhuninn-1.1';-inkscape-font-specification:'jf-openhuninn-1.1';text-align:start;text-anchor:start;stroke-width:0.264583"
         id="path895" />
    </g>
    <g
       aria-label="now"
       id="text849"
       style="font-style:normal;font-weight:normal;font-size:50.8px;line-height:1.25;font-family:sans-serif;fill:#000000;fill-opacity:1;stroke:none;stroke-width:0.264583"
       transform="rotate(-45,67.7334,67.7334)">
      <path
         d="m 22.886457,109.02487 q -0.942578,0 -1.637109,-0.64492 -0.644922,-0.69454 -0.644922,-1.63711 V 85.460414 q 0,-0.942578 0.644922,-1.637109 0.694531,-0.694531 1.637109,-0.694531 0.942578,0 1.637109,0.694531 0.694532,0.694531 0.694532,1.637109 v 1.885157 q 2.033984,-2.182813 4.216796,-3.323828 2.182813,-1.141016 4.960938,-1.141016 2.728515,0 4.812109,1.289844 1.984375,1.289843 3.026172,3.522265 1.091406,2.232422 1.091406,4.960938 v 14.089066 q 0,0.94257 -0.694531,1.63711 -0.694531,0.64492 -1.637109,0.64492 -0.942579,0 -1.63711,-0.64492 -0.644922,-0.69454 -0.644922,-1.63711 V 93.149867 q 0,-6.002734 -5.407421,-6.002734 -2.38125,0 -4.316016,1.190625 -1.885156,1.190625 -3.770312,3.522266 v 14.882816 q 0,0.94257 -0.694532,1.63711 -0.694531,0.64492 -1.637109,0.64492 z"
         style="font-style:normal;font-variant:normal;font-weight:normal;font-stretch:normal;font-size:50.8px;font-family:'jf-openhuninn-1.1';-inkscape-font-specification:'jf-openhuninn-1.1';text-align:center;text-anchor:middle;stroke-width:0.264583"
         id="path898" />
      <path
         d="m 62.028253,109.27291 q -3.819922,0 -6.697266,-1.63711 -2.877343,-1.68671 -4.464843,-4.71289 -1.5875,-3.026168 -1.5875,-6.846089 0,-3.869532 1.5875,-6.895703 1.5875,-3.026172 4.464843,-4.663282 2.926953,-1.637109 6.697266,-1.637109 3.770312,0 6.647656,1.637109 2.926953,1.686719 4.514453,4.712891 1.5875,2.976562 1.5875,6.846094 0,3.869531 -1.5875,6.846089 -1.637109,3.07579 -4.564062,4.71289 -2.877344,1.63711 -6.598047,1.63711 z m 0,-4.21679 q 2.033984,0 3.91914,-0.94258 1.934766,-0.99219 3.075782,-3.02617 1.141015,-2.083596 1.141015,-5.060159 0,-3.12539 -1.190625,-5.060156 -1.091406,-1.885156 -2.926953,-2.877344 -1.785937,-0.992187 -4.018359,-0.992187 -2.033984,0 -3.919141,0.892969 -1.934765,0.992187 -3.075781,3.026171 -1.141015,2.033985 -1.141015,5.010547 0,3.175 1.190625,5.109769 1.091406,1.93476 2.877343,2.92695 1.835547,0.99219 4.067969,0.99219 z"
         style="font-style:normal;font-variant:normal;font-weight:normal;font-stretch:normal;font-size:50.8px;font-family:'jf-openhuninn-1.1';-inkscape-font-specification:'jf-openhuninn-1.1';text-align:center;text-anchor:middle;stroke-width:0.264583"
         id="path900" />
      <path
         d="m 88.37083,109.02487 q -0.992187,0 -1.835546,-0.59532 -0.79375,-0.59531 -1.091407,-1.53789 L 78.399346,86.254164 q -0.148828,-0.446484 -0.148828,-0.843359 0,-0.942578 0.644922,-1.5875 0.694531,-0.694531 1.637109,-0.694531 0.744141,0 1.289844,0.396875 0.595312,0.347265 0.79375,0.992187 l 5.407422,17.760154 q 0.148828,0.39688 0.347265,0.39688 0.198438,0 0.347266,-0.39688 l 5.357812,-17.313669 q 0.248047,-0.84336 0.942578,-1.339453 0.694532,-0.496094 1.537891,-0.496094 0.843359,0 1.537891,0.496094 0.694531,0.496093 0.942578,1.339453 l 5.357814,17.313669 q 0.14883,0.39688 0.34726,0.39688 0.19844,0 0.34727,-0.39688 l 5.40742,-17.760154 q 0.19844,-0.644922 0.74414,-0.992187 0.59531,-0.396875 1.33945,-0.396875 0.94258,0 1.5875,0.694531 0.69454,0.644922 0.69454,1.5875 0,0.396875 -0.14883,0.843359 l -7.04453,20.637496 q -0.29766,0.94258 -1.14102,1.53789 -0.79375,0.59532 -1.78594,0.59532 -0.99218,0 -1.83554,-0.59532 -0.79375,-0.59531 -1.14102,-1.5875 L 96.903643,91.711196 q -0.148828,-0.396875 -0.347266,-0.396875 -0.198437,0 -0.347266,0.396875 l -4.861718,15.130854 q -0.347266,0.99219 -1.190625,1.5875 -0.79375,0.59532 -1.785938,0.59532 z"
         style="font-style:normal;font-variant:normal;font-weight:normal;font-stretch:normal;font-size:50.8px;font-family:'jf-openhuninn-1.1';-inkscape-font-specification:'jf-openhuninn-1.1';text-align:center;text-anchor:middle;stroke-width:0.264583"
         id="path902" />
    </g>
  </g>
</svg>
